{"title":"Love Hate Season 1 HQ.DVDrip x264 AC3 DeViL303","uid":8189299,"size":2250372156,"categoryP":"video","categoryS":"tv_shows","magnet":"?xt=urn:btih:cc994cfab347a5e8653def2ab6cacfbc6bd1b1b0&amp;dn=Love+Hate+Season+1+HQ.DVDrip+x264+AC3+DeViL303&amp;tr=udp%3A%2F%2Ftracker.openbittorrent.com%3A80&amp;tr=udp%3A%2F%2Fopen.demonii.com%3A1337&amp;tr=udp%3A%2F%2Ftracker.coppersurfer.tk%3A6969&amp;tr=udp%3A%2F%2Fexodus.desync.com%3A6969","seeders":13,"leechers":3,"uploader":"DeViL303","files":-1,"time":1361753288,"description":"Love Hate Season 1 HQ.DVDrip x264 AC3 DeViL303\n\nLove/Hate is an Irish crime drama series which broadcasts on RTÃ‰ Television. The first episode was broadcast at 21:30 on 3 October 2010 on RTÃ‰ One.[1] The show depicts fictional characters in Dublin's criminal underworld, John Boy Power played by Aidan Gillen and Darren Treacy played by Robert Sheehan. The show also features actors Ruth Negga, Ruth Bradley, Killian Scott, and Chris Newman.\n\nIt is directed by David Caffrey and is produced by Simon Massey, Suzanne McAuley, and James Flynn.[2]\n\nInternationally, the show is available to view on the RTÃ‰ Player for a limited time after its initial broadcast. The series is broadcast in Scotland on STV.[3] RTÃ‰ International and the show's producers signed an international broadcasting deal with ITV Studios Global Entertainment. ITV Global will help market and distribute the show internationally.[4] It has been well received,[5] and has won eight Irish Film &amp; Television Awards, seven of them in 2012.[6]\n\nThe third season aired on 11 November 2012. The opening episode of the third series had an average audience of 630,700 viewers which represented a 35% share of the available audience. The reach was 970,600.\n\n\nComplete name                            : Love Hate S01E01 HQ.DVDrip x264 AC3 DeViL303.mkv\nFormat                                   : Matroska\nFormat version                           : Version 1\nFile size                                : 548 MiB\nDuration                                 : 51mn 13s\nOverall bit rate mode                    : Variable\nOverall bit rate                         : 1 496 Kbps\nEncoded date                             : UTC 2013-02-23 19:34:48\nWriting application                      : mkvmerge v2.5.3 ('Boogie') built on Mar  7 2009 15:00:41\nWriting library                          : libebml v0.7.7 + libmatroska v0.8.1\n\nVideo\nID                                       : 1\nFormat                                   : AVC\nFormat/Info                              : Advanced Video Codec\nFormat profile                           : &lt;a class=&quot;__cf_email__&quot; href=&quot;/cdn-cgi/l/email-protection&quot; data-cfemail=&quot;420a2b252a020e716c72&quot;&gt;[email&amp;#160;protected]&lt;/a&gt;&lt;script cf-hash='f9e31' type=&quot;text/javascript&quot;&gt;\n/* &lt;![CDATA[ */!function(){try{var t=&quot;currentScript&quot;in document?document.currentScript:function(){for(var t=document.getElementsByTagName(&quot;script&quot;),e=t.length;e--;)if(t[e].getAttribute(&quot;cf-hash&quot;))return t[e]}();if(t&amp;&amp;t.previousSibling){var e,r,n,i,c=t.previousSibling,a=c.getAttribute(&quot;data-cfemail&quot;);if(a){for(e=&quot;&quot;,r=parseInt(a.substr(0,2),16),n=2;a.length-n;n+=2)i=parseInt(a.substr(n,2),16)^r,e+=String.fromCharCode(i);e=document.createTextNode(e),c.parentNode.replaceChild(e,c)}}}catch(u){}}();/* ]]&gt; */&lt;/script&gt;\nFormat settings, CABAC                   : Yes\nFormat settings, ReFrames                : 3 frames\nCodec ID                                 : V_MPEG4/ISO/AVC\nDuration                                 : 51mn 13s\nBit rate mode                            : Variable\nBit rate                                 : 1 303 Kbps\nMaximum bit rate                         : 12.0 Mbps\nWidth                                    : 720 pixels\nHeight                                   : 480 pixels\nDisplay aspect ratio                     : 16:9\nOriginal display aspect ratio            : 3:2\nFrame rate mode                          : Constant\nFrame rate                               : 29.970 fps\nStandard                                 : NTSC\nColor space                              : YUV\nChroma subsampling                       : 4:2:0\nBit depth                                : 8 bits\nScan type                                : Progressive\nBits/(Pixel*Frame)                       : 0.126\nStream size                              : 467 MiB (85%)\nWriting library                          : x264 core 93 r1542M 5b86182\nEncoding settings                        : cabac=1 / ref=4 / deblock=1:-1:-1 / r\nDefault                                  : Yes\nForced                                   : No\n\nAudio\nID                                       : 2\nFormat                                   : AC-3\nFormat/Info                              : Audio Coding 3\nMode extension                           : CM (complete main)\nFormat settings, Endianness              : Big\nCodec ID                                 : A_AC3\nDuration                                 : 51mn 13s\nBit rate mode                            : Constant\nBit rate                                 : 192 Kbps\nChannel(s)                               : 2 channels\nChannel positions                        : Front: L R\nSampling rate                            : 48.0 KHz\nBit depth                                : 16 bits\nCompression mode                         : Lossy\nStream size                              : 70.3 MiB (13%)\nDefault                                  : Yes\nForced                                   : No","torrent":{"xt":"urn:btih:cc994cfab347a5e8653def2ab6cacfbc6bd1b1b0","amp;dn":"Love+Hate+Season+1+HQ.DVDrip+x264+AC3+DeViL303","amp;tr":["udp%3A%2F%2Ftracker.openbittorrent.com%3A80","udp%3A%2F%2Fopen.demonii.com%3A1337","udp%3A%2F%2Ftracker.coppersurfer.tk%3A6969","udp%3A%2F%2Fexodus.desync.com%3A6969"],"infoHash":"cc994cfab347a5e8653def2ab6cacfbc6bd1b1b0","infoHashBuffer":{"type":"Buffer","data":[204,153,76,250,179,71,165,232,101,61,239,42,182,202,207,188,107,209,177,176]},"announce":[],"urlList":[]}}